<?xml version="1.0" standalone="no"?>
<!DOCTYPE svg PUBLIC "-//W3C//DTD SVG 20010904//EN"
 "http://www.w3.org/TR/2001/REC-SVG-20010904/DTD/svg10.dtd">
<svg version="1.0" xmlns="http://www.w3.org/2000/svg"
 width="148.000000pt" height="148.000000pt" viewBox="0 0 148.000000 148.000000"
 preserveAspectRatio="xMidYMid meet">

<g transform="translate(0.000000,148.000000) scale(0.100000,-0.100000)"
fill="#000000" stroke="none">
<path d="M127 1450 c-14 -16 -31 -46 -37 -66 -23 -68 1 -104 196 -290 97 -92
185 -181 196 -196 30 -43 28 -92 -7 -128 -37 -39 -85 -40 -137 -5 -48 33 -97
33 -136 0 -47 -40 -190 -265 -198 -312 -13 -86 36 -156 212 -299 136 -111 211
-138 306 -110 84 24 141 68 329 256 178 177 293 311 332 385 31 57 31 183 0
240 -34 63 -165 206 -355 388 l-176 167 -98 0 -99 -1 287 -282 c158 -155 297
-298 308 -317 25 -44 26 -100 0 -150 -42 -81 -449 -498 -524 -535 -61 -31 -68
-31 -132 -1 -52 24 -254 207 -254 230 0 6 30 56 66 110 l66 98 53 -52 54 -53
158 163 c87 89 161 168 166 176 7 13 -22 43 -393 401 l-85 82 65 66 64 65
-101 0 c-100 0 -102 0 -126 -30z"/>
<path d="M583 674 c-87 -91 -159 -171 -161 -178 -1 -6 16 -27 39 -46 l42 -33
55 59 c31 32 105 110 166 171 l110 113 -39 40 c-21 22 -42 40 -46 40 -4 0 -79
-74 -166 -166z"/>
<path d="M1318 735 c-77 -83 -77 -81 -27 -131 24 -24 51 -44 60 -44 16 0 129
115 129 131 0 9 -86 92 -100 97 -5 2 -33 -22 -62 -53z m90 -18 l32 -33 -36
-42 c-19 -23 -41 -42 -48 -42 -7 0 -25 13 -41 30 l-28 29 39 45 c21 24 41 45
45 45 3 1 20 -14 37 -32z"/>
<path d="M1146 548 c-31 -35 -56 -66 -56 -71 0 -11 93 -97 106 -97 12 0 124
123 124 136 0 16 -84 94 -101 94 -10 0 -42 -28 -73 -62z m109 -8 l28 -29 -38
-43 c-22 -24 -41 -44 -45 -46 -3 -1 -20 12 -37 30 l-32 33 35 43 c20 23 41 42
48 42 7 0 25 -13 41 -30z"/>
<path d="M996 381 l-57 -58 57 -51 c45 -39 62 -48 72 -40 10 9 9 15 -8 33 -26
28 -13 40 51 50 27 4 50 14 57 25 10 16 8 18 -30 13 -39 -6 -40 -5 -27 15 12
19 10 24 -11 47 -13 14 -28 25 -35 25 -6 0 -37 -26 -69 -59z m81 3 c7 -19 -45
-76 -67 -72 -21 5 -19 20 10 56 27 35 47 41 57 16z"/>
<path d="M907 282 c-10 -10 -17 -28 -17 -39 0 -11 -3 -35 -6 -52 l-7 -32 -22
21 c-18 17 -24 18 -34 7 -9 -11 0 -25 44 -66 52 -50 75 -57 75 -25 0 7 -9 19
-20 26 -11 7 -20 16 -20 19 0 4 26 12 59 18 34 7 66 20 76 31 21 24 18 24 -60
6 -33 -8 -61 -13 -62 -12 -2 2 1 27 7 56 6 29 9 55 7 57 -2 2 -11 -5 -20 -15z"/>
<path d="M723 79 c-14 -14 5 -79 24 -79 11 0 13 8 8 31 -7 31 -6 32 21 25 39
-10 40 -13 19 -36 -18 -19 -17 -20 2 -20 11 0 28 9 37 19 9 10 25 17 35 14 9
-2 23 2 30 11 11 13 9 16 -11 21 -127 29 -149 30 -165 14z"/>
</g>
</svg>
