<?xml version="1.0" standalone="no"?>
<!DOCTYPE svg PUBLIC "-//W3C//DTD SVG 20010904//EN"
 "http://www.w3.org/TR/2001/REC-SVG-20010904/DTD/svg10.dtd">
<svg version="1.0" xmlns="http://www.w3.org/2000/svg"
 width="204.000000pt" height="192.000000pt" viewBox="0 0 204.000000 192.000000"
 preserveAspectRatio="xMidYMid meet">

<g transform="translate(0.000000,192.000000) scale(0.100000,-0.100000)"
fill="#000000" stroke="none">
<path d="M0 960 l0 -960 1020 0 1020 0 0 960 0 960 -1020 0 -1020 0 0 -960z
m359 91 c34 -23 36 -37 10 -51 -16 -9 -27 -9 -44 0 -32 17 -67 9 -84 -21 -13
-24 -13 -29 2 -53 18 -27 69 -37 82 -16 9 15 41 12 55 -5 30 -36 -60 -82 -124
-64 -81 22 -114 124 -60 188 42 51 110 60 163 22z m218 8 c96 -46 96 -167 0
-212 -47 -23 -78 -21 -118 6 -45 30 -61 63 -56 115 5 50 36 88 81 101 45 13
45 13 93 -10z m454 -17 c-4 -15 -16 -29 -27 -31 -29 -5 -34 -19 -34 -98 l0
-73 -35 0 -35 0 0 115 0 115 35 0 c19 0 35 -4 35 -9 0 -6 12 -4 27 4 34 18 43
12 34 -23z m142 25 c18 -8 38 -21 45 -30 11 -13 9 -18 -14 -30 -25 -13 -31
-13 -51 0 -21 14 -43 11 -43 -6 0 -4 19 -13 43 -20 56 -17 77 -37 77 -76 0
-48 -30 -70 -96 -70 -44 0 -58 4 -79 26 l-26 26 26 17 c25 16 28 16 45 1 19
-17 61 -17 60 0 0 6 -21 17 -46 25 -50 17 -74 41 -74 75 0 33 42 66 93 74 4 0
22 -5 40 -12z m230 -1 c45 -19 68 -48 74 -95 l6 -41 -89 0 -89 -1 24 -19 c28
-24 37 -24 73 -6 24 13 28 12 45 -6 17 -19 17 -20 -6 -39 -35 -28 -70 -34
-115 -18 -48 17 -86 67 -86 114 0 44 38 97 80 112 45 15 45 15 83 -1z m218
-29 c-6 -15 -17 -27 -25 -27 -24 0 -36 -34 -36 -104 l0 -66 -30 0 -30 0 0 115
0 115 30 0 c17 0 30 -4 30 -9 0 -6 12 -3 27 4 34 18 47 7 34 -28z m177 20 c8
-6 12 -6 12 2 0 6 14 11 30 11 l30 0 0 -115 0 -116 -42 1 c-24 0 -59 -2 -78
-5 -61 -10 -130 54 -130 121 0 82 117 149 178 101z m-1068 -61 c0 -54 4 -79
16 -90 20 -21 30 -20 54 4 16 16 20 33 20 90 l0 70 30 0 30 0 0 -116 0 -116
-37 4 c-21 3 -48 1 -60 -5 -28 -13 -67 -2 -93 25 -17 19 -20 35 -20 115 l0 93
30 0 30 0 0 -74z"/>
<path d="M480 990 c-24 -24 -25 -38 -4 -68 16 -24 53 -29 85 -12 26 15 26 75
0 90 -30 16 -59 12 -81 -10z"/>
<path d="M1320 996 c-11 -14 -6 -16 40 -16 37 0 50 4 48 13 -7 19 -72 21 -88
3z"/>
<path d="M1707 992 c-10 -10 -17 -28 -17 -40 0 -50 75 -72 104 -30 21 30 20
44 -4 68 -25 25 -62 26 -83 2z"/>
</g>
</svg>
