<?xml version="1.0" standalone="no"?>
<!DOCTYPE svg PUBLIC "-//W3C//DTD SVG 20010904//EN"
 "http://www.w3.org/TR/2001/REC-SVG-20010904/DTD/svg10.dtd">
<svg version="1.0" xmlns="http://www.w3.org/2000/svg"
 width="259.000000pt" height="148.000000pt" viewBox="0 0 259.000000 148.000000"
 preserveAspectRatio="xMidYMid meet">

<g transform="translate(0.000000,148.000000) scale(0.100000,-0.100000)"
fill="#000000" stroke="none">
<path d="M1820 894 l0 -56 -25 16 c-40 26 -98 21 -133 -12 -55 -51 -52 -157 5
-201 31 -25 99 -28 131 -5 20 14 22 14 22 0 0 -11 10 -16 30 -16 l30 0 0 165
0 165 -30 0 c-30 0 -30 0 -30 -56z m-25 -99 c27 -26 31 -54 14 -88 -16 -29
-28 -37 -60 -37 -59 0 -87 93 -40 131 31 26 57 24 86 -6z"/>
<path d="M1030 900 c0 -20 -5 -30 -15 -30 -9 0 -15 -9 -15 -24 0 -13 7 -26 15
-30 12 -4 15 -23 15 -85 0 -71 2 -82 22 -95 12 -9 37 -16 55 -16 28 0 33 4 33
24 0 18 -6 25 -22 28 -21 3 -23 9 -26 76 -3 71 -3 72 23 72 20 0 25 5 25 25 0
20 -5 25 -25 25 -21 0 -25 5 -25 30 0 27 -3 30 -30 30 -27 0 -30 -3 -30 -30z"/>
<path d="M460 745 l0 -125 30 0 30 0 0 83 c0 69 3 87 18 100 21 19 45 21 73 7
17 -9 19 -22 19 -100 l0 -90 35 0 35 0 0 73 c0 89 -14 142 -43 162 -28 19 -86
19 -115 -1 -20 -14 -22 -14 -22 0 0 11 -10 16 -30 16 l-30 0 0 -125z"/>
<path d="M764 836 c-30 -30 -34 -40 -34 -89 0 -45 5 -61 26 -86 48 -57 133
-61 186 -7 l32 31 -38 3 c-21 2 -43 -1 -49 -7 -25 -25 -97 -2 -97 30 0 5 40 9
89 9 50 0 93 4 96 10 12 19 -16 89 -46 114 -24 20 -41 26 -81 26 -44 0 -54 -4
-84 -34z m128 -33 c29 -26 21 -33 -42 -33 -33 0 -60 3 -60 7 0 3 7 15 17 25
20 22 61 23 85 1z"/>
<path d="M1180 745 l0 -125 30 0 30 0 0 79 c0 71 2 82 22 95 12 9 30 16 40 16
13 0 18 8 18 30 0 35 -21 40 -58 14 -20 -14 -22 -14 -22 0 0 11 -10 16 -30 16
l-30 0 0 -125z"/>
<path d="M1377 849 c-50 -38 -58 -140 -16 -193 11 -14 35 -30 54 -36 30 -10
41 -9 75 8 31 15 40 16 40 6 0 -9 11 -14 30 -14 l30 0 0 125 0 125 -30 0 c-20
0 -30 -5 -30 -16 0 -14 -2 -14 -22 0 -32 23 -100 20 -131 -5z m128 -54 c48
-47 20 -125 -43 -125 -61 0 -88 84 -42 130 27 27 56 25 85 -5z"/>
<path d="M1910 857 c0 -8 20 -60 45 -117 25 -57 45 -109 45 -117 0 -7 -11 -36
-25 -63 -14 -27 -25 -52 -25 -55 0 -3 15 -5 34 -5 23 0 35 5 39 18 4 13 93
224 144 340 4 10 -3 13 -28 10 -31 -3 -35 -7 -64 -80 -17 -42 -33 -80 -37 -83
-3 -3 -19 31 -36 77 -28 78 -31 83 -61 86 -22 2 -31 -1 -31 -11z"/>
<path d="M2200 745 l0 -125 30 0 30 0 0 84 c0 92 11 116 54 116 42 0 56 -29
56 -118 l0 -82 30 0 30 0 0 94 c0 87 -2 97 -26 125 -21 26 -33 31 -68 31 -23
0 -48 -6 -55 -12 -11 -10 -14 -10 -18 0 -3 6 -18 12 -34 12 l-29 0 0 -125z"/>
<path d="M2506 839 c-58 -50 -60 -133 -6 -188 16 -16 43 -31 60 -33 27 -4 30
-2 30 23 0 21 -5 28 -21 31 -12 2 -28 13 -37 26 -14 21 -14 22 22 22 32 0 36
3 36 25 0 21 -5 25 -30 25 -16 0 -30 4 -30 9 0 15 30 41 46 41 8 0 14 10 14
25 0 36 -40 33 -84 -6z"/>
</g>
</svg>
